<svg width="140" height="90" viewBox="0 0 140 90" fill="none" xmlns="http://www.w3.org/2000/svg">
<g clip-path="url(#clip0_18_549)">
<path d="M47.2106 18.7943H55.4707V21.1617H54.8513C54.5699 21.1426 54.2874 21.1801 54.0207 21.2722C53.8721 21.3438 53.7542 21.4665 53.6882 21.6178C53.6136 21.7757 53.5768 22.0771 53.5779 22.5222V27.8347H51.0861L50.4431 26.6194C49.7135 27.1081 48.9173 27.4888 48.079 27.7495C47.2542 28.002 46.3962 28.1291 45.5337 28.1267C44.0518 28.1448 42.5935 27.7544 41.3184 26.998C40.0433 26.2417 39.0005 25.1486 38.3043 23.8385C37.5563 22.4432 37.1765 20.8797 37.2011 19.2962C37.1776 17.7399 37.5577 16.2042 38.3043 14.8391C39.0187 13.5431 40.0761 12.4694 41.3603 11.7362C42.658 10.9813 44.1338 10.5879 45.6346 10.5967C46.3848 10.5976 47.1319 10.6931 47.8584 10.8808C48.5218 11.0419 49.1587 11.2976 49.7496 11.6399L50.1988 10.8871H51.8946L53.4218 16.4979L51.1901 17.2271C50.4305 15.996 49.83 15.1579 49.3887 14.7129C48.9542 14.2713 48.4396 13.9167 47.8726 13.668C47.3491 13.4275 46.781 13.2995 46.2051 13.2924C45.4388 13.294 44.6908 13.5266 44.0585 13.96C43.3598 14.4476 42.8134 15.1234 42.4824 15.9092C42.0947 16.7636 41.9009 17.7979 41.9009 19.0121C41.9009 20.3484 42.111 21.5058 42.5313 22.4843C42.9516 23.4628 43.5074 24.1894 44.1988 24.6639C44.8629 25.1306 45.6554 25.3793 46.4667 25.3757C47.0372 25.3778 47.6016 25.2573 48.1216 25.0222C48.6469 24.7886 49.0047 24.5256 49.1949 24.233C49.4057 23.8779 49.5072 23.4683 49.4864 23.0556V22.437C49.4864 22.0077 49.4581 21.7378 49.4013 21.6241C49.3227 21.4716 49.1973 21.3482 49.0436 21.2722C48.8944 21.1975 48.6012 21.1607 48.1641 21.1617H47.2106V18.7943Z" fill="#F15B22"/>
<path d="M63.3463 15.4184C64.728 15.4184 65.9326 15.6894 66.9602 16.2312C67.9392 16.7318 68.7582 17.4973 69.3243 18.4408C69.8943 19.4402 70.1814 20.5762 70.1549 21.7268C70.1549 23.6207 69.5408 25.159 68.3125 26.3417C67.0842 27.5244 65.4425 28.1157 63.3873 28.1157C61.2943 28.1157 59.6289 27.5202 58.3912 26.3291C57.1944 25.1959 56.5961 23.6618 56.5961 21.7268C56.5961 20.4568 56.8693 19.3636 57.4156 18.4471C57.9848 17.5062 58.8031 16.7414 59.7797 16.2375C60.8815 15.6701 62.1078 15.3885 63.3463 15.4184ZM63.3936 18.0778C62.9293 18.0789 62.4766 18.2227 62.0965 18.4898C61.668 18.7921 61.3389 19.215 61.1509 19.705C60.9071 20.3568 60.7936 21.0502 60.8167 21.7458C60.7952 22.4644 60.9063 23.1808 61.1446 23.8591C61.3147 24.3534 61.6294 24.7851 62.0477 25.098C62.4164 25.3589 62.857 25.4984 63.3085 25.4973C64.0209 25.4973 64.6313 25.1959 65.1399 24.593C65.6484 23.9901 65.9032 23.0531 65.9043 21.7821C65.9043 20.551 65.6679 19.6256 65.195 19.0059C64.9916 18.7173 64.7216 18.4822 64.408 18.3206C64.0943 18.159 63.7463 18.0757 63.3936 18.0778Z" fill="#F15B22"/>
<path d="M78.7475 15.4185C80.1313 15.4185 81.3364 15.6894 82.363 16.2313C83.3419 16.7318 84.161 17.4974 84.7271 18.4409C85.2971 19.4402 85.5842 20.5763 85.5577 21.7269C85.5577 23.6208 84.943 25.1591 83.7137 26.3418C82.4843 27.5244 80.8431 28.1157 78.7901 28.1157C76.696 28.1157 75.0306 27.5202 73.794 26.3291C72.5962 25.1959 71.9978 23.6618 71.9988 21.7269C71.9988 20.4569 72.2715 19.3637 72.8168 18.4472C73.3866 17.5067 74.2047 16.7421 75.1809 16.2376C76.2825 15.6698 77.5089 15.3881 78.7475 15.4185ZM78.7964 18.0779C78.3321 18.079 77.8793 18.2228 77.4993 18.4898C77.0709 18.7922 76.7418 19.2152 76.5536 19.7051C76.3112 20.3572 76.1983 21.0504 76.2211 21.7458C76.1995 22.4644 76.3107 23.1809 76.5489 23.8591C76.7191 24.3534 77.0337 24.7851 77.452 25.0981C77.8207 25.3591 78.2613 25.4987 78.7128 25.4974C79.4231 25.4974 80.0336 25.1959 80.5442 24.593C81.0549 23.9901 81.3096 23.0531 81.3086 21.7821C81.3086 20.551 81.0722 19.6256 80.5994 19.0059C80.3956 18.7173 80.1253 18.4822 79.8114 18.3207C79.4975 18.1591 79.1493 18.0758 78.7964 18.0779Z" fill="#F15B22"/>
<path d="M99.9849 10V24.1256C99.9849 24.6843 100.009 25.0221 100.057 25.1389C100.104 25.2549 100.193 25.3487 100.306 25.4009C100.423 25.4577 100.732 25.4861 101.233 25.4861H101.804V27.8346L96.5412 28.0113V26.7613C95.9211 27.1981 95.2486 27.5549 94.5396 27.8235C93.9867 28.0188 93.4049 28.1197 92.8185 28.1218C91.9066 28.1268 91.0136 27.8621 90.2512 27.3611C89.4705 26.855 88.8316 26.1037 88.3347 25.1073C87.8411 24.066 87.5862 22.9274 87.5887 21.7747C87.5912 20.6221 87.8509 19.4846 88.3489 18.4454C88.7872 17.5219 89.4724 16.738 90.3284 16.1805C91.1455 15.6699 92.0918 15.4048 93.055 15.4167C93.5569 15.4141 94.0571 15.4772 94.5428 15.6045C95.0927 15.7607 95.6219 15.9827 96.1188 16.2658V13.3775H94.3442V11.0338C95.1647 10.9643 95.9797 10.8404 96.7839 10.6629C97.4746 10.4914 98.152 10.2698 98.8107 10H99.9849ZM96.1094 24.3624V20.2872C96.1261 19.9235 96.0895 19.5592 96.0006 19.2061C95.8765 18.875 95.6429 18.5965 95.3387 18.417C94.9851 18.186 94.5701 18.0677 94.1481 18.0775C93.7261 18.0874 93.317 18.225 92.9746 18.4722C92.5679 18.7804 92.2596 19.2005 92.0873 19.6812C91.851 20.3304 91.7397 21.0186 91.7594 21.7093C91.7594 22.8341 92.0063 23.7368 92.5002 24.4176C92.6656 24.6684 92.8916 24.8732 93.1572 25.0131C93.4228 25.153 93.7194 25.2234 94.0195 25.2178C94.2884 25.219 94.5553 25.172 94.8075 25.0789C95.2612 24.878 95.6968 24.6382 96.1094 24.3624Z" fill="#F15B22"/>
<path d="M32.8559 36.5897L34.3106 42.2715L32.0427 42.9139C31.2925 41.5586 30.4409 40.5659 29.4879 39.9356C28.5925 39.3225 27.534 38.9926 26.4493 38.9887C25.7547 38.9887 25.2078 39.1307 24.8086 39.4148C24.4093 39.6989 24.2092 40.0145 24.2081 40.3618C24.2081 40.7595 24.3909 41.1272 24.755 41.4666C25.1191 41.8059 25.7652 42.1121 26.7188 42.3788L29.9702 43.3258C31.7711 43.8435 33.0566 44.5321 33.8268 45.3917C34.5725 46.2212 34.9793 47.3013 34.9663 48.4173C34.9663 49.8851 34.3842 51.1251 33.22 52.1373C31.9182 53.2547 30.3011 53.814 28.3689 53.815C27.5314 53.8232 26.6975 53.7061 25.8945 53.4678C25.0585 53.1964 24.266 52.8057 23.5414 52.3078L23.0087 53.5231H21.2057L20.0048 46.9527L22.2727 46.4066C22.7929 47.7235 23.6534 48.8783 24.766 49.7525C25.8122 50.6173 27.1258 51.0915 28.4824 51.0941C28.9954 51.1088 29.5069 51.0307 29.9922 50.8636C30.3489 50.7406 30.6625 50.517 30.8953 50.2197C31.0865 49.9769 31.1933 49.6782 31.1995 49.369C31.1995 48.884 30.9647 48.4673 30.495 48.119C30.0253 47.7707 29.1911 47.4277 27.9922 47.09L25.1648 46.2645C24.5711 46.0785 23.9917 45.8495 23.4311 45.5796C22.8186 45.3186 22.2502 44.964 21.7463 44.5284C21.3182 44.111 20.9772 43.6125 20.7432 43.0619C20.5092 42.5114 20.3867 41.9197 20.383 41.3214C20.3778 40.4373 20.6374 39.5719 21.1285 38.8371C21.6244 38.0796 22.3725 37.4661 23.3728 36.9969C24.4102 36.5191 25.5408 36.2787 26.6825 36.293C28.0874 36.276 29.4663 36.6728 30.6479 37.4341L31.1207 36.5834L32.8559 36.5897Z" fill="#F15B22"/>
<path d="M36.1908 41.4077L41.8552 41.2988V49.1808C41.8552 49.7395 41.8893 50.1119 41.9576 50.2982C42.0294 50.4877 42.1618 50.6481 42.3343 50.7543C42.5411 50.8779 42.7792 50.9388 43.0199 50.9295C43.4635 50.9212 43.9007 50.8218 44.3044 50.6375C44.4819 50.5575 44.9548 50.2703 45.7228 49.7758V45.0378C45.7399 44.7506 45.7063 44.4626 45.6235 44.1871C45.5708 44.0472 45.4718 43.9297 45.343 43.8541C45.1179 43.7666 44.876 43.731 44.6353 43.7499H43.9277V41.4077L49.6157 41.2988V49.9952C49.6157 50.4481 49.6409 50.7338 49.6945 50.8506C49.7436 50.965 49.8343 51.0564 49.9482 51.1063C50.2234 51.1769 50.508 51.2035 50.7914 51.1852H51.4345V53.5289L46.1105 53.6741V52.2411C45.4564 52.7369 44.7346 53.1361 43.9671 53.4263C43.273 53.6844 42.5389 53.8179 41.7984 53.8209C41.2506 53.8263 40.7065 53.7294 40.194 53.5352C39.7373 53.3648 39.3194 53.1045 38.9647 52.7698C38.6376 52.4555 38.3854 52.0714 38.2271 51.646C38.0492 51.1145 37.9671 50.5555 37.9844 49.9952V44.9936C37.9844 44.5327 37.9581 44.2413 37.9056 44.1192C37.8531 43.9997 37.7598 43.9029 37.6424 43.8462C37.3878 43.7664 37.1204 43.7353 36.8544 43.7546H36.183L36.1908 41.4077Z" fill="#F15B22"/>
<path d="M61.1146 41.4076H62.7032L63.6851 44.7836L61.3951 45.71C60.9866 45.0346 60.4231 44.4664 59.7513 44.0528C59.1654 43.6767 58.4865 43.4712 57.7907 43.4594C57.362 43.4594 57.0436 43.532 56.8324 43.6772C56.7401 43.7305 56.6627 43.8064 56.6076 43.8977C56.5525 43.9891 56.5214 44.093 56.5172 44.1996C56.52 44.2899 56.5414 44.3786 56.5802 44.4601C56.619 44.5416 56.6743 44.6141 56.7426 44.6731C56.8907 44.8199 57.2012 44.973 57.6693 45.1355L61.0042 46.3256C61.5938 46.5352 62.1626 46.7994 62.7032 47.1147C63.2023 47.3899 63.6219 47.7895 63.9215 48.2747C64.2009 48.7643 64.3415 49.3209 64.3281 49.8846C64.3395 50.4026 64.2317 50.9163 64.0131 51.386C63.7945 51.8556 63.4708 52.2686 63.0673 52.5929C62.0807 53.4178 60.8514 53.8308 59.3793 53.8319C58.2076 53.8579 57.0561 53.523 56.0806 52.8723L55.7418 53.5399H54.1279L52.637 49.5563L54.9333 48.5762C55.4685 49.437 56.195 50.1624 57.0562 50.6958C57.8968 51.2103 58.6691 51.4676 59.373 51.4676C59.7632 51.4809 60.1481 51.3747 60.4763 51.163C60.5756 51.1037 60.6586 51.0206 60.7178 50.9211C60.777 50.8216 60.8104 50.7089 60.8151 50.5932C60.8102 50.4904 60.784 50.3898 60.7382 50.2977C60.6923 50.2055 60.6278 50.124 60.5488 50.0582C60.3707 49.8877 59.9782 49.6983 59.373 49.4869L56.752 48.5762C55.3052 48.0669 54.3212 47.5224 53.8001 46.9427C53.2848 46.385 53.0027 45.6506 53.0121 44.8909C53.0075 44.3967 53.1156 43.908 53.3281 43.4619C53.5406 43.0158 53.8518 42.6242 54.2382 42.3167C55.1671 41.5223 56.315 41.1251 57.6819 41.1251C58.8944 41.1251 59.9336 41.4008 60.7994 41.9521L61.1146 41.4076Z" fill="#F15B22"/>
<path d="M71.556 35.7021V42.443C72.2224 42.0214 72.9347 41.6772 73.6789 41.4171C74.2538 41.2248 74.8553 41.1241 75.4615 41.1188C76.175 41.1072 76.8798 41.2766 77.5103 41.6112C78.0596 41.8896 78.5199 42.3167 78.8389 42.8439C79.1205 43.3373 79.2619 43.9971 79.2629 44.823V49.8877C79.246 50.189 79.2666 50.4912 79.3244 50.7874C79.3589 50.8657 79.409 50.9362 79.4716 50.9945C79.5342 51.0528 79.6079 51.0978 79.6884 51.1267C79.9714 51.1842 80.2607 51.2049 80.549 51.1882H81.1195V53.532H73.9815V51.193H74.3456C74.5883 51.2094 74.8318 51.1761 75.0611 51.0951C75.1809 51.0406 75.2759 50.9432 75.3275 50.8221C75.3942 50.5422 75.4192 50.2539 75.4016 49.9666V45.7716C75.4016 45.2213 75.3669 44.853 75.2975 44.6668C75.2267 44.4811 75.0972 44.3237 74.9287 44.2185C74.7297 44.0943 74.498 44.0327 74.2637 44.0418C73.8565 44.0475 73.4536 44.1255 73.0737 44.2722C72.5357 44.494 72.0261 44.7796 71.556 45.1229V49.9619C71.556 50.4228 71.5796 50.71 71.6285 50.8237C71.6835 50.9442 71.7821 51.0395 71.9043 51.0904C72.1526 51.1719 72.4142 51.2051 72.675 51.1882H72.9382V53.532H65.8932V51.193H66.5709C66.8263 51.2109 67.0828 51.1842 67.329 51.1141C67.4417 51.0578 67.5302 50.9624 67.578 50.8457C67.6507 50.6035 67.6795 50.3501 67.6631 50.0976V39.0797H65.8932V36.7359C66.6552 36.6813 67.4115 36.5652 68.1549 36.3887C68.9255 36.2195 69.6817 35.9899 70.4165 35.7021H71.556Z" fill="#F15B22"/>
<path d="M88.3899 41.119V50.0884C88.3899 50.5177 88.4135 50.7812 88.4624 50.8775C88.5193 50.9821 88.6123 51.0624 88.724 51.1032C88.9988 51.1729 89.2827 51.1995 89.5656 51.1821H90.2213V53.5259H82.7256V51.1932H83.3686C83.6394 51.209 83.9111 51.1862 84.1755 51.1253C84.2872 51.0858 84.38 51.0059 84.4356 50.9012C84.5078 50.6991 84.5368 50.484 84.5207 50.2699V44.4713H82.7256V42.197C83.342 42.1643 83.9558 42.0927 84.5632 41.9823C85.0961 41.8906 85.6226 41.7646 86.1393 41.6051C86.5195 41.473 86.8884 41.3104 87.2425 41.119H88.3899ZM86.4246 35.7023C86.9518 35.6907 87.4666 35.8632 87.8806 36.1904C88.2946 36.5175 88.5819 36.9788 88.6931 37.495C88.8044 38.0112 88.7327 38.5501 88.4903 39.0191C88.2479 39.4881 87.85 39.858 87.3649 40.0651C86.8798 40.2722 86.3378 40.3037 85.832 40.1542C85.3263 40.0047 84.8883 39.6834 84.5933 39.2456C84.2984 38.8078 84.1649 38.2809 84.2158 37.7552C84.2666 37.2296 84.4987 36.7381 84.8721 36.3652C85.0727 36.1553 85.3137 35.9884 85.5805 35.8745C85.8473 35.7605 86.1345 35.702 86.4246 35.7023Z" fill="#F15B22"/>
<path d="M111.421 42.3709H117.364V44.7036H116.636C116.344 44.6839 116.051 44.7248 115.775 44.8235C115.602 44.9164 115.462 45.0609 115.375 45.2371C115.31 45.3423 115.176 45.7958 114.975 46.5975C114.809 47.1835 114.594 47.7543 114.332 48.3037C114.059 48.8997 113.734 49.4706 113.361 50.0098C113.717 50.5527 114.014 50.9089 114.253 51.0783C114.46 51.2381 114.713 51.3276 114.975 51.334C115.109 51.337 115.242 51.3127 115.366 51.2624C115.49 51.2121 115.603 51.1369 115.697 51.0414C115.791 50.9459 115.865 50.8322 115.914 50.7072C115.962 50.5821 115.985 50.4485 115.98 50.3144C115.953 49.9364 115.828 49.572 115.618 49.2569C115.413 48.9722 115.291 48.6362 115.265 48.2863C115.265 48.0811 115.308 47.8783 115.392 47.6909C115.476 47.5036 115.598 47.3359 115.75 47.1989C115.903 47.0461 116.085 46.9255 116.285 46.8441C116.485 46.7628 116.699 46.7224 116.915 46.7254C117.2 46.7226 117.482 46.7851 117.74 46.9082C117.998 47.0313 118.224 47.2117 118.401 47.4356C118.801 47.9091 119.002 48.5788 119.002 49.4447C119.018 50.0342 118.906 50.6202 118.675 51.1623C118.443 51.7045 118.097 52.1901 117.66 52.5855C116.767 53.4104 115.585 53.8234 114.113 53.8245C113.49 53.8425 112.87 53.7479 112.281 53.5451C111.694 53.2903 111.159 52.9273 110.705 52.475C109.411 53.3747 107.907 53.8245 106.194 53.8245C104.366 53.8245 102.882 53.2984 101.742 52.2462C101.196 51.7643 100.76 51.1695 100.464 50.5028C100.169 49.8361 100.022 49.1134 100.032 48.3841C100.008 47.187 100.394 46.0176 101.124 45.0698C101.698 44.3248 102.66 43.5762 104.01 42.8239C103.492 42.508 103.054 42.0757 102.732 41.5612C102.443 41.0747 102.293 40.5176 102.3 39.9514C102.296 39.4606 102.4 38.9749 102.604 38.5288C102.809 38.0828 103.109 37.6874 103.484 37.3709C104.272 36.6617 105.3 36.3077 106.57 36.3087C107.864 36.3087 108.875 36.6344 109.602 37.2857C109.953 37.5898 110.233 37.9679 110.422 38.393C110.61 38.8181 110.703 39.2796 110.693 39.7446C110.715 40.4968 110.499 41.2368 110.075 41.858C109.688 42.3638 109.184 42.7683 108.607 43.0369C108.992 43.1979 109.352 43.4143 109.674 43.6793C110.088 44.0649 110.451 44.502 110.754 44.9798C110.989 45.327 111.446 46.1935 112.124 47.5792C112.593 46.5091 112.828 45.7437 112.828 45.2828C112.829 45.157 112.786 45.0347 112.707 44.9372C112.625 44.8358 112.508 44.7688 112.379 44.7494C112.061 44.7134 111.741 44.7013 111.421 44.7131V42.3709ZM106.51 44.2901C105.796 44.6337 105.182 45.1542 104.726 45.8021C104.333 46.3713 104.122 47.0466 104.12 47.7386C104.111 48.1575 104.187 48.5739 104.342 48.963C104.497 49.3521 104.729 49.706 105.023 50.0035C105.302 50.3016 105.639 50.5383 106.014 50.6984C106.389 50.8584 106.793 50.9384 107.2 50.9331C107.884 50.9267 108.558 50.7733 109.178 50.4833C108.986 50.1664 108.831 49.8285 108.716 49.4763L108.062 47.2052C107.907 46.6393 107.716 46.0837 107.492 45.5417C107.38 45.2824 107.238 45.0376 107.068 44.8125C106.902 44.6173 106.715 44.442 106.51 44.2901ZM106.546 38.5451C106.37 38.5411 106.196 38.5792 106.037 38.6564C105.879 38.7335 105.742 38.8475 105.637 38.9886C105.401 39.2843 105.284 39.7157 105.284 40.2828C105.26 40.7116 105.389 41.1348 105.648 41.4776C105.747 41.6135 105.877 41.7243 106.026 41.8013C106.176 41.8783 106.341 41.9193 106.51 41.9211C106.735 41.9165 106.954 41.8469 107.14 41.7206C107.342 41.5975 107.499 41.4127 107.588 41.1935C107.722 40.8873 107.789 40.5557 107.783 40.2213C107.783 39.6541 107.662 39.2333 107.419 38.9587C107.313 38.8291 107.18 38.7248 107.029 38.6533C106.878 38.5818 106.713 38.5448 106.546 38.5451Z" fill="#F15B22"/>
<path d="M36.4273 62.2916H45.373C46.3257 62.2684 47.2767 62.3848 48.1957 62.6372C48.9052 62.8483 49.5625 63.2064 50.1248 63.6884C50.6557 64.1502 51.0808 64.7214 51.371 65.3629C51.6612 66.0043 51.8098 66.701 51.8064 67.4052C51.8166 68.0984 51.6722 68.7851 51.3837 69.4153C51.0953 70.0454 50.67 70.6032 50.139 71.0479C49.0263 72.0285 47.4917 72.5183 45.5353 72.5173H42.6495V75.688C42.6495 76.0837 42.6779 76.3346 42.7347 76.4409C42.8018 76.5899 42.9197 76.7101 43.0672 76.7802C43.3094 76.8696 43.5677 76.9072 43.8253 76.8907H44.689V79.2344H36.4273V76.8907H37.001C37.5053 76.8907 37.8389 76.8539 38.0018 76.7802C38.1585 76.7133 38.2844 76.59 38.3548 76.4346C38.4283 76.2767 38.4651 75.9511 38.4651 75.4576V66.1458C38.4651 65.626 38.4325 65.2835 38.3674 65.1183C38.3103 64.9623 38.1982 64.8326 38.0522 64.7537C37.7929 64.658 37.5162 64.6188 37.2405 64.6385H36.4225L36.4273 62.2916ZM42.6495 65.0615V69.8705H44.0932C44.9737 69.8705 45.6204 69.7795 46.0333 69.5975C46.4386 69.42 46.784 69.1289 47.0278 68.7594C47.2844 68.36 47.4151 67.8926 47.4029 67.4179C47.4152 67.0601 47.3399 66.7049 47.1836 66.383C47.0273 66.0611 46.7947 65.7824 46.5062 65.5713C46.0617 65.2304 45.4029 65.0604 44.5298 65.0615H42.6495Z" fill="#F15B22"/>
<path d="M58.4636 66.8183V75.7939C58.4636 76.2232 58.4889 76.4868 58.5361 76.5831C58.593 76.6877 58.686 76.7679 58.7978 76.8088C59.0731 76.8784 59.3575 76.905 59.641 76.8877H60.2919V79.2314H52.8009V76.8908H53.4423C53.7132 76.9067 53.9849 76.8839 54.2493 76.823C54.3615 76.7839 54.4549 76.7038 54.5109 76.5989C54.5832 76.3967 54.6121 76.1816 54.596 75.9675V70.1737H52.8009V67.8915C53.4166 67.8614 54.0299 67.7923 54.637 67.6847C55.1699 67.5931 55.6963 67.4671 56.213 67.3075C56.5933 67.1757 56.9623 67.0131 57.3163 66.8214L58.4636 66.8183ZM56.4999 61.4048C57.0279 61.3928 57.5437 61.5654 57.9585 61.8928C58.3732 62.2203 58.6612 62.6823 58.7727 63.1993C58.8843 63.7163 58.8126 64.2561 58.5699 64.7259C58.3272 65.1956 57.9286 65.5661 57.4428 65.7736C56.9569 65.981 56.414 66.0125 55.9075 65.8627C55.4009 65.7128 54.9623 65.391 54.667 64.9524C54.3717 64.5139 54.2382 63.986 54.2894 63.4595C54.3406 62.9331 54.5732 62.4409 54.9475 62.0676C55.1479 61.8576 55.3889 61.6906 55.6557 61.5766C55.9226 61.4627 56.2098 61.4042 56.4999 61.4048Z" fill="#F15B22"/>
<path d="M63.4613 67.1134H73.7451V69.4571L66.5299 76.6715H68.1722C69.0453 76.6715 69.7146 76.5784 70.1801 76.3921C70.6527 76.199 71.074 75.8986 71.411 75.5146C71.6537 75.2463 71.9326 74.7628 72.2478 74.0641L74.4433 74.8896L72.842 79.2346H61.4235V76.8909L68.5788 69.6765H67.4629C66.9069 69.6547 66.3512 69.7267 65.8191 69.8896C65.3933 70.0644 65.0152 70.3382 64.7159 70.6882C64.5383 70.8745 64.2189 71.3579 63.7576 72.1387L61.6363 71.1554L63.4613 67.1134Z" fill="#F15B22"/>
<path d="M77.3716 67.1134H87.6554V69.4571L80.4402 76.6715H82.0777C82.9509 76.6715 83.6197 76.5784 84.0841 76.3921C84.5569 76.1994 84.9783 75.8989 85.315 75.5146C85.5577 75.2463 85.8366 74.7628 86.1519 74.0641L88.3457 74.8896L86.7445 79.2346H75.3338V76.8909L82.4891 69.6765H81.3733C80.8178 69.6545 80.2625 69.7265 79.731 69.8896C79.3048 70.0636 78.9264 70.3375 78.6278 70.6882C78.4502 70.8745 78.1308 71.3579 77.6695 72.1387L75.5466 71.1554L77.3716 67.1134Z" fill="#F15B22"/>
<path d="M96.8564 71.8863V70.9882C96.8564 70.4537 96.8117 70.0855 96.7224 69.8834C96.6207 69.6666 96.4507 69.4891 96.2386 69.3784C95.9697 69.2372 95.6689 69.1681 95.3654 69.178C95.1163 69.175 94.869 69.2205 94.6373 69.3121C94.4409 69.386 94.2629 69.5018 94.1156 69.6514C93.9259 69.8942 93.7744 70.1646 93.6664 70.4532C93.505 70.8777 93.2329 71.251 92.8784 71.5343C92.5683 71.7573 92.1948 71.8746 91.813 71.8689C91.579 71.8773 91.3458 71.8387 91.1271 71.7552C90.9083 71.6717 90.7085 71.545 90.5395 71.3828C90.3777 71.228 90.2498 71.041 90.1641 70.834C90.0784 70.6269 90.0366 70.4043 90.0415 70.1802C90.0361 69.6535 90.217 69.1419 90.5521 68.736C91.005 68.1773 91.6801 67.7196 92.5774 67.3629C93.5449 66.9899 94.5746 66.8051 95.6113 66.8184C96.7366 66.8184 97.6927 67.001 98.4797 67.3661C99.2667 67.7312 99.8167 68.1663 100.13 68.6713C100.445 69.1785 100.603 69.9497 100.603 70.9851V75.3411C100.603 75.8746 100.631 76.2166 100.688 76.367C100.761 76.5357 100.89 76.6747 101.052 76.7616C101.238 76.8751 101.452 76.9342 101.67 76.9321C101.981 76.9149 102.289 76.8494 102.581 76.7379V79.1053C101.942 79.3163 101.275 79.427 100.603 79.4336C99.9492 79.4516 99.2996 79.3272 98.6988 79.069C98.1719 78.8243 97.7166 78.4482 97.3765 77.9769C96.69 78.4406 95.9489 78.8175 95.17 79.099C94.5556 79.3137 93.9105 79.4267 93.2598 79.4336C92.104 79.4336 91.17 79.108 90.4576 78.4567C90.1159 78.1561 89.8435 77.7847 89.6593 77.3683C89.4751 76.9519 89.3834 76.5004 89.3906 76.0451C89.3859 75.5236 89.5145 75.0096 89.7641 74.552C90.0326 74.073 90.4107 73.6646 90.8674 73.3604C91.3559 73.0205 92.1119 72.7191 93.1353 72.456C94.3573 72.161 95.6021 71.9704 96.8564 71.8863ZM96.8564 73.9033C95.7973 74.0569 95.0492 74.2148 94.6121 74.3768C94.252 74.4848 93.929 74.6908 93.679 74.9718C93.5051 75.178 93.4067 75.4375 93.4001 75.7073C93.3974 75.8612 93.4287 76.0139 93.4916 76.1544C93.5545 76.2949 93.6476 76.4197 93.7641 76.5201C94.0385 76.7495 94.3891 76.8667 94.746 76.8484C95.0655 76.8369 95.3801 76.7668 95.6743 76.6416C96.0854 76.4742 96.4809 76.2709 96.8564 76.034V73.9033Z" fill="#F15B22"/>
</g>
<defs>
<clipPath id="clip0_18_549">
<rect width="99" height="69.4286" fill="white" transform="translate(20 10)"/>
</clipPath>
</defs>
</svg>
